<?xml version="1.0" encoding="UTF-8"?>
<svg version="1.1" xmlns="http://www.w3.org/2000/svg" width="160" height="48">
<path d="M0 0 C52.8 0 105.6 0 160 0 C160 15.84 160 31.68 160 48 C107.2 48 54.4 48 0 48 C0 32.16 0 16.32 0 0 Z " fill="#024BAD" transform="translate(0,0)"/>
<path d="M0 0 C6.77984525 5.64987104 6.77984525 5.64987104 7.703125 10.01953125 C7.97557054 15.73115744 6.63102452 19.30604795 3.25 23.875 C-0.58206212 27.47481593 -4.9721455 27.49560673 -10.01953125 27.359375 C-14.47274869 26.56939079 -16.97539929 24.3370391 -19.75 20.875 C-22.22033055 17.06657373 -21.97083395 13.46131393 -21.359375 9.09375 C-20.19555714 4.85625934 -17.6392357 2.01478683 -13.859375 -0.265625 C-9.35566323 -2.10047054 -4.44941778 -1.82021637 0 0 Z " fill="#F3F6FB" transform="translate(32.75,11.125)"/>
<path d="M0 0 C1.875 1 1.875 1 3 3 C3.53653931 6.57692871 3.65701652 9.76326302 1.9375 13 C-1.16867275 14.60318593 -3.57990979 14.42751128 -7 14 C-9.62541413 11.79803976 -9.9445448 10.38026421 -10.4375 7 C-10 4 -10 4 -8.375 1.625 C-5.32214079 -0.46379841 -3.63031776 -0.54068562 0 0 Z " fill="#E3EBF6" transform="translate(117,16)"/>
<path d="M0 0 C1.9375 1 1.9375 1 3 3 C3.52960415 6.58042244 3.65886567 9.75978228 1.9375 13 C-1.16867275 14.60318593 -3.57990979 14.42751128 -7 14 C-8.9375 12.4375 -8.9375 12.4375 -10 10 C-10.61818182 4.12727273 -10.61818182 4.12727273 -8.9375 1.0625 C-5.88023824 -0.6140629 -3.4093712 -0.36528977 0 0 Z " fill="#E5EDF6" transform="translate(67,16)"/>
<path d="M0 0 C3.5 0.4375 3.5 0.4375 5.4375 1.4375 C7.15886567 4.67771772 7.02960415 7.85707756 6.5 11.4375 C5.4375 13.4375 5.4375 13.4375 3.5 14.4375 C0 14.875 0 14.875 -3.5 14.4375 C-6.13769276 12.22524156 -6.44923246 10.84364032 -6.875 7.4375 C-6.24186108 2.37238863 -5.19492722 0.6493659 0 0 Z " fill="#EDF2F9" transform="translate(146.5,15.5625)"/>
<path d="M0 0 C7 0 7 0 10 2 C9.79375 3.2375 9.5875 4.475 9.375 5.75 C8.93892876 9.11909835 8.96596361 11.12841921 11 14 C7.20411134 13.45773019 5.52788007 11.79872437 3 9 C3 10.65 3 12.3 3 14 C2.01 14 1.02 14 0 14 C0 9.38 0 4.76 0 0 Z " fill="#BDD0E9" transform="translate(73,16)"/>
<path d="M0 0 C6.0546875 -0.1953125 6.0546875 -0.1953125 8 0 C10 2 10 2 10.25 4.5 C10 7 10 7 8 9 C5.375 9.125 5.375 9.125 3 9 C3 10.65 3 12.3 3 14 C2.01 14 1.02 14 0 14 C0 9.38 0 4.76 0 0 Z " fill="#C6D7EC" transform="translate(45,16)"/>
<path d="M0 0 C2.64 0 5.28 0 8 0 C8 0.99 8 1.98 8 3 C6.35 3 4.7 3 3 3 C3 3.99 3 4.98 3 6 C4.65 6 6.3 6 8 6 C8 6.66 8 7.32 8 8 C6.35 8 4.7 8 3 8 C3 9.98 3 11.96 3 14 C2.01 14 1.02 14 0 14 C0 9.38 0 4.76 0 0 Z " fill="#E5ECF6" transform="translate(97,16)"/>
<path d="M0 0 C3.53571429 0.53571429 3.53571429 0.53571429 5 2 C5.1875 4.9375 5.1875 4.9375 5 8 C4.34 8.66 3.68 9.32 3 10 C-0.53571429 9.46428571 -0.53571429 9.46428571 -2 8 C-2.1875 5.0625 -2.1875 5.0625 -2 2 C-1.34 1.34 -0.68 0.68 0 0 Z " fill="#195CB5" transform="translate(145,18)"/>
<path d="M0 0 C3.3 0 6.6 0 10 0 C10 0.66 10 1.32 10 2 C8.68 2 7.36 2 6 2 C6 5.96 6 9.92 6 14 C5.01 14 4.02 14 3 14 C3 10.04 3 6.08 3 2 C2.01 2 1.02 2 0 2 C0 1.34 0 0.68 0 0 Z " fill="#E6EDF7" transform="translate(85,16)"/>
<path d="M0 0 C2.5 0.125 2.5 0.125 3.5 1.125 C3.6875 4.0625 3.6875 4.0625 3.5 7.125 C2.84 7.785 2.18 8.445 1.5 9.125 C-2.03571429 8.58928571 -2.03571429 8.58928571 -3.5 7.125 C-3.625 4.125 -3.625 4.125 -3.5 1.125 C-2.5 0.125 -2.5 0.125 0 0 Z " fill="#1156B2" transform="translate(63.5,18.875)"/>
<path d="M0 0 C0.99 0 1.98 0 3 0 C3 3.96 3 7.92 3 12 C4.98 12 6.96 12 9 12 C9 12.66 9 13.32 9 14 C6.03 14 3.06 14 0 14 C0 9.38 0 4.76 0 0 Z " fill="#E6EDF7" transform="translate(123,16)"/>
<path d="M0 0 C3.875 0.875 3.875 0.875 5 2 C5.125 5 5.125 5 5 8 C4 9 4 9 1.4375 9.0625 C0.633125 9.041875 -0.17125 9.02125 -1 9 C-1.625 6.1875 -1.625 6.1875 -2 3 C-1.34 2.01 -0.68 1.02 0 0 Z " fill="#1257B2" transform="translate(112,18)"/>
<path d="M0 0 C2.375 -0.125 2.375 -0.125 5 0 C7 2 7 2 7.125 4.625 C7.08375 5.40875 7.0425 6.1925 7 7 C6.01 7.33 5.02 7.66 4 8 C4 8.66 4 9.32 4 10 C3.34 10 2.68 10 2 10 C2 8.68 2 7.36 2 6 C2.66 6 3.32 6 4 6 C4 5.01 4 4.02 4 3 C3.01 3 2.02 3 1 3 C0.67 3.99 0.34 4.98 0 6 C-0.66 5.67 -1.32 5.34 -2 5 C-1.34 3.35 -0.68 1.7 0 0 Z " fill="#1B5DB5" transform="translate(23,17)"/>
<path d="M0 0 C1.2065625 0.0309375 1.2065625 0.0309375 2.4375 0.0625 C1.4475 0.3925 0.4575 0.7225 -0.5625 1.0625 C-0.5625 2.7125 -0.5625 4.3625 -0.5625 6.0625 C0.0975 6.3925 0.7575 6.7225 1.4375 7.0625 C0.7775 7.0625 0.1175 7.0625 -0.5625 7.0625 C-0.5625 9.0425 -0.5625 11.0225 -0.5625 13.0625 C-1.5525 13.0625 -2.5425 13.0625 -3.5625 13.0625 C-3.58936553 11.08340602 -3.60883375 9.10421029 -3.625 7.125 C-3.63660156 6.02285156 -3.64820312 4.92070312 -3.66015625 3.78515625 C-3.52747618 0.086036 -3.52747618 0.086036 0 0 Z " fill="#F7F9FC" transform="translate(76.5625,16.9375)"/>
<path d="M0 0 C0.99 0 1.98 0 3 0 C3 4.62 3 9.24 3 14 C2.01 14 1.02 14 0 14 C0 9.38 0 4.76 0 0 Z " fill="#EAF0F8" transform="translate(134,16)"/>
<path d="M0 0 C0.33 0 0.66 0 1 0 C1.0825 1.11375 1.165 2.2275 1.25 3.375 C1.57873787 7.05753944 1.57873787 7.05753944 4.0625 8.4375 C4.701875 8.623125 5.34125 8.80875 6 9 C6 9.66 6 10.32 6 11 C3.6875 11.25 3.6875 11.25 1 11 C-1.32411336 8.83617032 -1.93683957 7.5305476 -2.3125 4.375 C-2 2 -2 2 0 0 Z " fill="#F4F7FB" transform="translate(59,19)"/>
<path d="M0 0 C1.98 0 3.96 0 6 0 C4.68 0.33 3.36 0.66 2 1 C2 2.65 2 4.3 2 6 C2.99 6 3.98 6 5 6 C5 6.66 5 7.32 5 8 C4.01 8 3.02 8 2 8 C2 9.65 2 11.3 2 13 C1.34 13 0.68 13 0 13 C0 8.71 0 4.42 0 0 Z " fill="#FEFEFE" transform="translate(46,17)"/>
<path d="M0 0 C1.32 0.33 2.64 0.66 4 1 C3.67 2.32 3.34 3.64 3 5 C2.01 5 1.02 5 0 5 C0 3.35 0 1.7 0 0 Z " fill="#487DC4" transform="translate(48,18)"/>
</svg>
